<svg viewBox="0 0 200 200" xmlns="http://www.w3.org/2000/svg">
  <defs>
    <!-- Gradiente principal em tons de azul -->
    <linearGradient id="blueGradient" x1="0%" y1="0%" x2="100%" y2="100%">
      <stop offset="0%" style="stop-color:#2563EB;stop-opacity:1" />
      <stop offset="100%" style="stop-color:#0EA5E9;stop-opacity:1" />
    </linearGradient>
    
    <!-- Gradiente para o símbolo -->
    <linearGradient id="symbolGradient" x1="0%" y1="0%" x2="100%" y2="100%">
      <stop offset="0%" style="stop-color:#ffffff;stop-opacity:1" />
      <stop offset="100%" style="stop-color:#F8FAFC;stop-opacity:0.9" />
    </linearGradient>
  </defs>

  <!-- Círculo base com gradiente -->
  <circle cx="100" cy="100" r="85" 
          fill="url(#blueGradient)" />

  <!-- Símbolo N limpo e moderno -->
  <path d="M60 140
           L60 60
           C60 55, 65 50, 70 50
           L75 50
           C80 50, 85 55, 85 60
           L85 95
           L115 50
           C120 45, 125 45, 130 50
           L140 60
           L140 140
           L115 140
           L115 85
           L85 140
           Z"
        fill="url(#symbolGradient)"/>

  <!-- Elementos decorativos sutis -->
  <circle cx="60" cy="140" r="3" fill="white" opacity="0.8"/>
  <circle cx="140" cy="60" r="3" fill="white" opacity="0.8"/>
  
  <!-- Detalhe minimalista -->
  <path d="M70 50 Q100 50 130 50" 
        stroke="white" 
        stroke-width="1.5" 
        fill="none" 
        opacity="0.3"/>
</svg>
